<svg fill="none" height="32" viewBox="0 0 32 32" width="32" xmlns="http://www.w3.org/2000/svg" xmlns:xlink="http://www.w3.org/1999/xlink"><linearGradient id="a" gradientUnits="userSpaceOnUse" x1="11.4276" x2="30.4712" y1="12.3641" y2="12.3641"><stop offset="0" stop-color="#21d789"/><stop offset="1" stop-color="#07c3f2"/></linearGradient><linearGradient id="b" gradientUnits="userSpaceOnUse" x1="-11.227" x2="27.9863" y1="27.0085" y2="-1.93875"><stop offset=".011" stop-color="#fcf84a"/><stop offset=".112" stop-color="#a7eb62"/><stop offset=".206" stop-color="#5fe077"/><stop offset=".273" stop-color="#32da84"/><stop offset=".306" stop-color="#21d789"/><stop offset=".577" stop-color="#21d789"/><stop offset=".597" stop-color="#21d789"/><stop offset=".686" stop-color="#20d68c"/><stop offset=".763" stop-color="#1ed497"/><stop offset=".835" stop-color="#19d1a9"/><stop offset=".904" stop-color="#13ccc2"/><stop offset=".971" stop-color="#0bc6e1"/><stop offset="1" stop-color="#07c3f2"/></linearGradient><linearGradient id="c" gradientUnits="userSpaceOnUse" x1="4.26514" x2="10.8055" y1="35.4991" y2="14.9762"><stop offset="0" stop-color="#21d789"/><stop offset=".164" stop-color="#24d788"/><stop offset=".305" stop-color="#2fd886"/><stop offset=".437" stop-color="#41da82"/><stop offset=".564" stop-color="#5adc7d"/><stop offset=".688" stop-color="#7ae077"/><stop offset=".809" stop-color="#a1e36e"/><stop offset=".925" stop-color="#cfe865"/><stop offset="1" stop-color="#f1eb5e"/></linearGradient><linearGradient id="d" gradientUnits="userSpaceOnUse" x1="12.9254" x2="27.1581" y1="17.6562" y2="-1.47932"><stop offset="0" stop-color="#21d789"/><stop offset=".061" stop-color="#24d788"/><stop offset=".113" stop-color="#2fd886"/><stop offset=".162" stop-color="#41da82"/><stop offset=".209" stop-color="#5add7d"/><stop offset=".255" stop-color="#79e077"/><stop offset=".258" stop-color="#7ce076"/><stop offset=".499" stop-color="#8ce173"/><stop offset=".925" stop-color="#b2e56b"/></linearGradient><linearGradient id="e" gradientUnits="userSpaceOnUse" x1="34.6922" x2="6.01518" y1="20.0914" y2="19.8258"><stop offset=".387" stop-color="#fcf84a"/><stop offset=".536" stop-color="#ecf451"/><stop offset=".826" stop-color="#c2e964"/><stop offset=".925" stop-color="#b2e56b"/></linearGradient><clipPath id="f"><path d="m0 0h32v32h-32z"/></clipPath><g clip-path="url(#f)"><path d="m22.4456 5.02881 9.3258 7.81719-3.3372 6.8114-5.6686-1.5543h-4.8457z" fill="url(#a)"/><path d="m13.0286 10.1029-1.8286 9.5542-.1829 3.2915-4.52567 1.9657-6.49143.6857 1.96571-20.70857 11.70289-4.89143 7.2228 4.75429z" fill="url(#b)"/><path d="m13.0286 10.103.8685 18.4686-2.9257 3.4286-10.9714-6.4 9.00571-13.44z" fill="url(#c)"/><path d="m25.0969 8.73143h-11.1086l9.8286-8.73143z" fill="url(#d)"/><path d="m32.0001 28.6171-9.7829 3.3372-12.98282-3.6572 3.79432-18.1942 1.5085-1.37147 7.9086-.73143-.7314 7.9543 6.3085-2.4229z" fill="url(#e)"/><path d="m6.12598 6.12549h19.74852v19.74861h-19.74852z" fill="#000"/><g fill="#fff"><path d="m8 22.1714h7.4057v1.2343h-7.4057z"/><path d="m7.95508 8.73145h3.29142c1.9657 0 3.1543 1.14285 3.1543 2.83425 0 1.8743-1.4629 2.9257-3.2914 2.9257h-1.37146v2.4229h-1.78286zm3.20002 4.11425c.9143 0 1.4171-.5943 1.4171-1.28 0-.8228-.5486-1.2343-1.4628-1.2343h-1.37146v2.5143z"/><path d="m15.1318 12.8457c0-2.3315 1.7372-4.25146 4.2515-4.25146 1.5543 0 2.4685.50286 3.2457 1.28l-1.1429 1.32576c-.64-.5943-1.28-.9143-2.1028-.9143-1.3715 0-2.3772 1.1428-2.3772 2.56 0 1.4171.96 2.5143 2.3772 2.5143.9143 0 1.5085-.3658 2.1485-.96l1.1429 1.1428c-.8229.9143-1.7829 1.4629-3.3371 1.4629-2.4229.0457-4.2058-1.8286-4.2058-4.16z"/></g></g></svg>